<svg height="512pt" viewBox="0 0 512 512" width="512pt" xmlns="http://www.w3.org/2000/svg"><linearGradient id="a" gradientUnits="userSpaceOnUse" x1="0" x2="512" y1="256" y2="256"><stop offset="0" stop-color="#80d8ff"/><stop offset="1" stop-color="#ea80fc"/></linearGradient><path d="M390.387 198.637l-68.836 98.332c-6.02 8.605-17.668 11.086-26.676 5.683l-82.668-49.605-61.059 83.586c-6.511 8.918-19.027 10.867-27.945 4.351s-10.867-19.027-4.351-27.949l71.832-98.332c6.101-8.355 17.57-10.676 26.441-5.351l82.348 49.41 58.144-83.067c6.332-9.047 18.805-11.25 27.852-4.914 9.05 6.336 11.25 18.805 4.918 27.856zM512 256c0 141.484-114.496 256-256 256-41.703 0-82.898-10.219-119.563-29.602l-94.707 9.829c-12.62 1.316-23.265-9.34-21.957-21.957l9.829-94.707C10.219 338.897 0 297.702 0 256 0 114.516 114.496 0 256 0c141.484 0 256 114.496 256 256zm-40 0c0-119.379-96.605-216-216-216-119.379 0-216 96.605-216 216 0 37.023 9.535 73.555 27.574 105.652a20.029 20.029 0 012.457 11.864l-7.93 76.382c80.778-8.347 76.544-8.035 78.45-8.035 3.422 0 6.797.875 9.8 2.567C182.446 462.465 218.978 472 256 472c119.379 0 216-96.605 216-216zm0 0" fill="url(#a)"/></svg>